<svg xmlns="http://www.w3.org/2000/svg" width="1254" height="836" viewBox="330 95 590 340">
<g>
<path d="M 664.00 442.97 C647.39,443.92 635.66,444.03 624.50,443.33 C592.87,441.34 572.48,438.65 546.31,433.01 L 528.54 429.19 L 517.78 435.21 C507.36,441.05 506.94,441.19 504.55,439.63 C501.50,437.63 501.24,436.02 500.44,414.25 L 499.80 397.00 L 541.65 397.01 L 583.50 397.01 L 575.60 402.24 L 567.70 407.47 L 571.78 408.65 C599.06,416.55 657.59,417.18 695.51,409.99 C750.10,399.63 785.31,379.59 785.15,358.97 C785.07,348.38 775.55,337.58 758.78,329.04 C753.12,326.16 748.28,323.57 748.00,323.27 C747.72,322.97 752.21,323.04 757.96,323.43 L 768.43 324.12 L 775.46 329.81 C779.33,332.94 786.80,339.65 792.07,344.73 L 801.64 353.95 L 807.48 346.94 C810.69,343.09 813.80,340.09 814.41,340.29 C816.46,340.94 820.94,350.50 822.56,357.69 C827.65,380.33 813.16,401.67 782.32,416.94 C753.27,431.32 713.10,440.16 664.00,442.97 ZM 593.00 383.01 C593.00,384.83 592.32,385.00 585.12,385.00 L 577.23 385.00 L 571.62 378.42 C564.39,369.96 564.25,368.75 569.46,360.00 C577.93,345.76 597.02,306.91 598.93,300.00 C600.08,295.88 601.68,286.18 602.49,278.46 C603.30,270.74 604.88,261.77 606.00,258.51 C608.48,251.29 609.49,243.42 608.56,238.46 C607.92,235.05 607.76,234.90 606.55,236.63 C602.94,241.78 592.00,267.15 592.00,270.35 C592.00,278.43 587.46,282.84 582.49,279.58 C578.82,277.18 578.43,275.36 580.43,270.11 C581.40,267.57 584.23,258.77 586.72,250.54 C594.72,224.10 602.96,209.85 613.34,204.50 C620.08,201.03 621.42,199.24 620.03,195.58 C618.96,192.76 617.90,192.45 614.89,194.06 C613.47,194.82 611.91,194.80 609.45,193.98 C605.56,192.70 605.17,191.70 607.84,189.81 C610.50,187.92 612.00,184.63 612.00,180.71 C612.00,176.86 615.10,171.72 619.32,168.59 C623.45,165.53 636.00,165.55 639.06,168.62 C641.64,171.20 644.32,183.81 643.44,189.22 C642.78,193.29 639.62,198.00 637.55,198.00 C635.97,198.00 634.47,199.76 633.58,202.67 C633.07,204.34 633.95,206.00 637.44,209.93 C643.10,216.30 645.00,219.94 645.00,224.40 C645.00,229.40 646.95,237.92 649.03,242.00 C652.36,248.55 664.78,261.77 668.80,263.06 C674.02,264.74 676.00,266.79 676.00,270.53 C676.00,274.42 673.88,276.44 670.65,275.63 C668.23,275.02 646.66,259.79 641.85,255.29 L 639.20 252.81 L 638.51 261.16 C638.49,261.50 638.46,261.83 638.43,262.15 C638.29,263.81 638.18,265.14 638.20,266.46 C638.28,271.80 640.48,277.12 651.54,305.00 C655.79,315.73 662.97,334.27 667.48,346.21 C671.99,358.15 676.30,368.66 677.06,369.57 C678.15,370.89 679.42,371.08 683.46,370.53 C686.23,370.15 690.08,369.77 692.00,369.67 C695.36,369.51 695.50,369.64 695.50,372.94 C695.50,375.80 694.92,376.72 692.12,378.36 C687.99,380.77 674.96,384.25 669.50,384.39 C665.86,384.49 665.36,384.19 664.00,381.06 C661.65,375.69 624.86,302.59 624.06,301.72 C623.67,301.30 620.64,306.47 617.33,313.22 C613.80,320.43 605.46,334.15 597.16,346.45 C588.85,358.75 583.00,368.38 583.00,369.77 C583.00,373.34 584.67,375.77 589.04,378.53 C591.49,380.07 593.00,381.78 593.00,383.01 ZM 487.60 404.75 C488.04,411.30 487.93,415.00 487.30,415.00 C484.95,415.00 464.89,400.67 460.67,395.98 C451.37,385.64 446.79,371.17 448.97,359.08 C455.03,325.48 502.90,297.84 572.30,287.88 C580.43,286.71 587.35,286.02 587.67,286.34 C587.99,286.66 587.16,291.32 585.83,296.71 L 583.40 306.50 L 567.45 309.14 C534.25,314.64 510.71,322.61 495.43,333.51 C475.36,347.83 478.05,365.33 502.55,379.77 C506.37,382.03 511.52,384.64 514.00,385.58 C522.02,388.64 521.17,389.30 510.00,388.63 C504.23,388.29 496.39,387.71 492.60,387.35 L 485.69 386.68 L 486.30 390.59 C486.64,392.74 487.22,399.11 487.60,404.75 ZM 446.17 552.50 L 441.50 574.50 L 431.83 574.79 C426.51,574.94 421.91,574.66 421.60,574.16 C420.61,572.56 403.91,503.71 403.30,498.75 L 402.72 494.00 L 412.25 494.00 C418.97,494.00 421.92,494.37 422.25,495.25 C422.50,495.94 424.92,507.86 427.61,521.75 C430.30,535.63 432.73,546.99 433.00,547.00 C433.27,547.00 434.20,543.51 435.06,539.25 C435.92,534.99 438.39,523.05 440.55,512.72 L 444.48 493.93 L 462.50 494.50 L 468.44 520.19 C471.71,534.32 474.69,545.69 475.07,545.45 C475.46,545.22 476.08,542.88 476.47,540.26 C476.85,537.64 478.66,527.85 480.48,518.50 C482.30,509.15 484.08,499.81 484.44,497.75 L 485.09 494.00 L 493.05 494.00 C493.46,494.00 493.85,494.00 494.22,494.00 C497.88,493.99 499.73,493.99 500.44,494.88 C501.16,495.79 500.70,497.63 499.79,501.33 C499.70,501.70 499.60,502.09 499.50,502.50 C496.91,513.07 490.94,540.01 487.48,556.75 C485.63,565.69 483.84,573.46 483.50,574.00 C483.16,574.55 478.89,575.00 474.02,575.00 L 465.16 575.00 L 464.15 571.75 C463.60,569.96 460.79,558.26 457.90,545.75 C455.02,533.24 452.29,523.00 451.83,523.00 C451.37,523.00 450.96,524.69 450.92,526.75 C450.87,528.81 448.73,540.40 446.17,552.50 ZM 697.61 322.08 C688.19,323.86 688.00,323.56 694.46,317.04 C698.56,312.90 699.93,310.93 698.93,310.59 C697.14,309.98 679.57,307.37 671.30,306.48 C667.88,306.11 664.64,305.27 664.09,304.61 C663.15,303.47 656.00,285.49 656.00,284.26 C656.00,282.58 699.12,286.55 716.50,289.83 L 725.50 291.53 L 735.48 285.76 C745.67,279.89 751.54,278.43 753.72,281.25 C754.72,282.54 758.62,311.71 757.90,312.43 C757.68,312.66 745.12,314.71 730.00,317.00 C714.87,319.28 700.30,321.57 697.61,322.08 ZM 752.00 561.05 L 752.00 575.00 L 728.67 575.00 C715.83,575.00 705.03,574.70 704.67,574.33 C704.30,573.97 704.00,555.97 704.00,534.33 L 704.00 495.00 L 723.36 495.00 C734.01,495.00 744.81,494.71 747.36,494.36 L 752.00 493.73 L 752.00 508.00 L 722.00 508.00 L 722.00 527.00 L 749.09 527.00 L 748.80 533.75 L 748.50 540.50 L 735.21 540.78 L 721.93 541.06 L 722.21 550.78 L 722.50 560.50 ZM 601.00 562.50 L 601.00 575.00 L 593.67 575.00 C589.63,575.00 586.03,574.70 585.67,574.33 C585.30,573.97 585.00,555.52 585.00,533.33 L 585.00 493.00 L 601.00 493.00 L 601.00 517.50 C601.00,530.97 601.34,542.00 601.75,541.99 C602.16,541.98 606.01,537.03 610.31,530.99 L 618.11 520.00 L 636.14 520.00 L 634.15 522.75 C633.06,524.26 628.98,529.55 625.09,534.49 C621.19,539.44 618.00,544.07 618.00,544.79 C618.00,545.50 622.25,552.23 627.44,559.74 C632.62,567.26 636.65,573.76 636.38,574.20 C636.10,574.64 631.89,575.00 627.02,575.00 L 618.15 575.00 L 610.33 562.50 C606.02,555.63 602.16,550.00 601.75,550.00 C601.34,550.00 601.00,555.62 601.00,562.50 ZM 521.99 573.33 C508.68,578.75 497.00,572.38 497.00,559.70 C497.00,554.87 499.65,550.06 504.13,546.74 C507.41,544.31 516.85,542.04 523.75,542.02 L 529.00 542.00 L 529.00 538.61 C529.00,536.75 528.14,534.16 527.08,532.86 C525.42,530.81 524.38,530.52 519.16,530.67 C515.62,530.77 511.24,531.68 508.53,532.88 L 503.92 534.92 L 502.89 532.21 C500.15,525.04 500.38,524.20 505.63,521.89 C511.89,519.15 528.20,518.09 534.12,520.04 C542.88,522.93 546.71,532.09 545.73,547.83 C545.00,559.56 545.73,563.92 548.64,565.25 C550.43,566.06 551.00,567.12 551.00,569.63 C551.00,573.76 548.91,575.00 541.97,575.00 C537.38,575.00 536.40,574.60 533.26,571.46 L 529.72 567.92 L 527.59 569.91 C526.43,571.01 523.90,572.54 521.99,573.33 ZM 778.39 574.58 C775.80,575.36 773.19,575.98 772.59,575.96 C769.56,575.83 763.32,572.78 760.65,570.11 C758.13,567.59 757.57,566.14 757.26,561.30 C756.50,549.71 763.66,543.72 780.00,542.26 L 788.50 541.50 L 788.80 538.42 C788.99,536.49 788.37,534.45 787.13,532.92 C785.43,530.82 784.39,530.52 779.33,530.63 C776.07,530.71 771.23,531.67 768.36,532.82 L 763.22 534.88 L 761.74 529.69 L 760.25 524.50 L 765.38 522.00 C769.99,519.75 771.72,519.50 782.67,519.50 C793.41,519.50 795.17,519.74 797.61,521.56 C804.13,526.42 804.47,527.59 804.84,546.17 L 805.17 563.19 L 808.08 564.85 C810.36,566.14 810.99,567.21 810.99,569.77 C811.00,573.65 808.50,575.00 801.33,575.00 C797.49,575.00 796.27,574.47 793.31,571.51 L 789.83 568.03 L 786.46 570.60 C784.61,572.01 780.97,573.81 778.39,574.58 ZM 846.25 573.97 C841.69,576.12 830.05,576.36 826.20,574.39 C820.40,571.42 819.60,568.55 819.18,549.30 L 818.80 532.11 L 815.15 531.80 L 811.50 531.50 L 810.90 521.00 L 819.00 521.00 L 819.00 505.00 L 835.92 505.00 L 836.50 520.50 L 849.00 521.10 L 849.00 524.97 C849.00,531.48 848.47,532.00 841.89,532.00 L 836.00 532.00 L 836.00 547.48 C836.00,562.87 836.01,562.96 838.49,564.59 C840.83,566.12 843.04,566.07 847.41,564.40 C848.72,563.89 849.00,564.58 849.00,568.23 C849.00,572.10 848.64,572.85 846.25,573.97 ZM 573.00 493.00 L 573.00 575.00 L 565.67 575.00 C561.63,575.00 558.03,574.70 557.67,574.33 C557.30,573.97 557.00,555.52 557.00,533.33 L 557.00 493.00 ZM 775.19 561.96 C780.48,566.89 789.00,561.95 789.00,553.94 L 789.00 549.72 L 783.25 550.37 C774.35,551.37 770.21,557.32 775.19,561.96 ZM 515.65 562.17 C518.00,564.76 522.33,564.44 525.92,561.41 C528.53,559.22 529.00,558.13 529.00,554.27 L 529.00 549.72 L 523.87 550.33 C516.95,551.15 514.00,553.20 514.00,557.19 C514.00,558.93 514.74,561.17 515.65,562.17 Z" fill="rgb(20,52,82)"/>
<path d="M 807.20 336.50 C804.19,340.90 801.40,344.87 801.00,345.31 C800.05,346.37 783.21,321.31 779.14,312.78 C772.05,297.93 773.05,286.17 782.17,277.08 C787.23,272.03 792.40,270.05 800.50,270.03 C812.49,270.01 819.91,274.98 824.79,286.30 C829.14,296.37 823.37,312.85 807.20,336.50 ZM 696.08 561.30 L 695.50 574.50 L 669.43 574.77 C655.10,574.91 643.06,574.73 642.68,574.35 C642.31,573.97 642.00,571.45 642.00,568.75 C642.00,563.85 642.05,563.78 653.52,551.59 C666.99,537.26 669.39,534.23 672.60,527.50 C677.76,516.66 674.18,508.00 664.54,508.00 C659.59,508.00 654.20,510.28 649.22,514.47 L 646.17 517.04 L 642.41 510.85 L 638.65 504.66 L 642.07 501.79 C643.96,500.21 647.97,497.71 651.00,496.24 C655.83,493.89 657.73,493.56 666.52,493.53 C675.34,493.50 677.14,493.81 681.51,496.05 C688.55,499.67 692.25,505.26 692.82,513.13 C693.77,526.27 689.69,534.66 674.54,550.75 L 665.83 560.00 L 674.17 560.01 C678.75,560.01 685.56,560.30 689.29,560.66 ZM 794.76 304.43 C799.34,306.92 804.35,306.41 807.89,303.10 C810.51,300.65 811.00,299.46 811.00,295.52 C811.00,291.69 810.47,290.32 808.08,287.92 C805.68,285.53 804.31,285.00 800.48,285.00 C796.49,285.00 795.30,285.50 792.40,288.40 C788.62,292.18 788.10,295.36 790.51,300.02 C791.34,301.63 793.26,303.62 794.76,304.43 Z" fill="rgb(95,143,77)"/>
<path d="M 593.00 383.01 C593.00,382.43 592.66,381.74 592.05,381.02 C594.58,382.93 596.31,382.93 629.00,382.72 C662.85,382.50 663.50,382.46 663.24,380.50 C663.13,379.61 654.77,362.45 645.80,344.37 C654.58,361.85 662.92,378.60 664.00,381.06 C665.36,384.19 665.86,384.49 669.50,384.39 C671.73,384.33 675.22,383.72 678.85,382.85 L 675.50 383.72 L 680.25 384.36 C682.86,384.71 687.14,385.28 689.75,385.62 C693.96,386.16 694.23,386.34 692.10,387.14 C690.79,387.64 683.36,388.47 675.60,389.00 C638.34,391.53 576.84,390.49 564.44,387.13 L 561.50 386.34 L 565.50 385.63 C572.19,384.46 574.22,384.14 574.44,383.33 C574.54,382.98 574.31,382.54 573.97,381.90 C573.93,381.82 573.89,381.75 573.85,381.67 C573.43,380.87 572.37,379.39 571.16,377.89 C571.31,378.06 571.46,378.24 571.62,378.42 L 577.23 385.00 L 585.12 385.00 C592.32,385.00 593.00,384.83 593.00,383.01 ZM 505.75 388.36 C507.23,388.46 508.67,388.55 510.00,388.63 C521.17,389.30 522.02,388.64 514.00,385.58 C512.38,384.97 509.60,383.63 506.81,382.15 C509.89,383.76 513.10,385.25 515.27,386.04 C523.63,389.09 524.77,390.35 518.50,389.63 C514.83,389.20 510.27,388.76 505.75,388.36 ZM 448.23 542.44 C449.79,534.54 450.88,528.22 450.92,526.75 C450.96,524.69 451.37,523.00 451.83,523.00 C451.97,523.00 452.33,523.97 452.84,525.69 C452.60,525.25 452.43,525.24 452.25,525.42 C451.98,525.69 450.30,532.82 448.23,542.44 ZM 486.58 392.79 C486.48,391.86 486.38,391.11 486.30,390.59 L 485.69 386.68 L 492.60 387.35 C492.80,387.37 493.01,387.39 493.23,387.41 C489.30,387.16 486.60,387.06 486.45,387.22 C486.27,387.40 486.33,389.66 486.58,392.79 ZM 588.63 378.26 C585.44,376.18 583.79,374.27 583.23,371.87 C583.76,373.63 585.30,375.45 588.63,378.26 ZM 569.76 376.20 C569.62,376.05 569.49,375.90 569.36,375.75 C566.57,372.63 565.41,370.58 565.89,367.79 C565.55,370.37 566.76,372.53 569.76,376.20 ZM 487.60 404.75 C487.46,402.74 487.30,400.64 487.14,398.67 C487.61,403.46 487.97,408.65 487.98,410.75 C487.99,411.84 487.91,412.84 487.78,413.59 C487.94,411.96 487.88,408.94 487.60,404.75 ZM 502.59 328.96 C508.49,325.60 515.34,322.57 523.18,319.83 C518.66,321.44 514.36,323.19 510.16,325.12 C507.44,326.37 504.91,327.65 502.59,328.96 ZM 682.40 381.93 C686.45,380.80 690.22,379.47 692.12,378.36 C692.31,378.25 692.49,378.14 692.67,378.03 C690.63,379.44 687.35,380.64 682.40,381.93 ZM 500.93 378.79 C493.75,374.34 488.60,369.61 485.52,364.79 C488.60,369.55 493.73,374.26 500.93,378.79 ZM 483.21 347.79 C485.03,342.91 489.01,338.14 495.19,333.68 C489.05,338.19 485.05,342.94 483.21,347.79 ZM 487.20 414.99 C487.19,415.00 487.17,415.00 487.15,415.00 C486.03,415.00 480.38,411.34 474.52,407.13 C480.27,411.24 485.83,414.82 487.20,414.99 ZM 583.01 370.13 C583.00,370.01 583.00,369.89 583.00,369.77 C583.00,369.42 583.37,368.54 584.06,367.23 C583.39,368.59 583.05,369.53 583.01,370.13 ZM 464.08 571.52 C464.11,571.61 464.13,571.69 464.15,571.75 L 464.76 573.72 C464.70,573.63 464.65,573.53 464.61,573.43 C464.53,573.23 464.35,572.56 464.08,571.52 Z" fill="rgb(152,166,178)"/>

</g>
</svg>